<?xml version="1.0" encoding="UTF-8"?>
<svg version="1.1" xmlns="http://www.w3.org/2000/svg" width="155" height="1126">
<path d="M0 0 C51.15 0 102.3 0 155 0 C155 371.58 155 743.16 155 1126 C103.85 1126 52.7 1126 0 1126 C0 754.42 0 382.84 0 0 Z " fill="#FEFEFE" transform="translate(0,0)"/>
<path d="M0 0 C1.65 0.33 3.3 0.66 5 1 C5 260.71 5 520.42 5 788 C3.35 788.33 1.7 788.66 0 789 C-1.6966281 787.3033719 -1.12518882 785.15373796 -1.12534916 782.83068514 C-1.12785268 781.70059473 -1.1303562 780.57050433 -1.13293558 779.40616876 C-1.13059442 778.14646176 -1.12825325 776.88675476 -1.12584114 775.58887482 C-1.12688295 774.24583973 -1.1283632 772.90280493 -1.13024551 771.55977076 C-1.13417132 767.83543156 -1.1317931 764.11111798 -1.12846755 760.38677915 C-1.12594702 756.34778666 -1.1291843 752.30879831 -1.13171089 748.26980639 C-1.13533578 741.17980302 -1.13520495 734.08980726 -1.13266373 726.99980354 C-1.12889516 716.45705512 -1.13080771 705.91431316 -1.13387203 695.37156479 C-1.13914952 676.54677133 -1.13867672 657.72198125 -1.13579312 638.89718746 C-1.13328195 622.42373191 -1.13261881 605.9502776 -1.13381577 589.4768219 C-1.13389215 588.38598085 -1.13396854 587.2951398 -1.13404724 586.17124296 C-1.13435855 581.74365798 -1.13467695 577.316073 -1.135007 572.88848803 C-1.13806905 531.31669003 -1.1352877 489.7448942 -1.1299101 448.17309655 C-1.12516416 411.2031244 -1.12558877 374.23315571 -1.13037109 337.26318359 C-1.13572058 295.76957315 -1.13785193 254.27596462 -1.13475883 212.78235388 C-1.13443809 208.36262862 -1.13412525 203.94290336 -1.13381577 199.5231781 C-1.13373669 198.4348526 -1.13365761 197.34652709 -1.13357614 196.22522203 C-1.13243653 179.75826619 -1.13377289 163.29131173 -1.13629532 146.82435608 C-1.13914778 128.10902341 -1.13845432 109.39369467 -1.13301457 90.67836249 C-1.13006748 80.19173969 -1.12990211 69.70512538 -1.13366075 59.21850278 C-1.13589118 52.22717305 -1.13452939 45.23585018 -1.13015598 38.24452147 C-1.12776097 34.2522257 -1.12699716 30.2599469 -1.13056196 26.26765162 C-1.13376489 22.64395826 -1.13246002 19.02029709 -1.1273813 15.39660612 C-1.12588087 13.46234753 -1.12934077 11.52808708 -1.13293558 9.59383124 C-1.13043207 8.46374084 -1.12792855 7.33365043 -1.12534916 6.16931486 C-1.1252814 5.18764057 -1.12521365 4.20596628 -1.12514383 3.19454429 C-1 1 -1 1 0 0 Z " fill="#060606" transform="translate(64,161)"/>
</svg>
